<?xml version="1.0" standalone="no"?>
<!DOCTYPE svg PUBLIC "-//W3C//DTD SVG 20010904//EN"
 "http://www.w3.org/TR/2001/REC-SVG-20010904/DTD/svg10.dtd">
<svg version="1.0" xmlns="http://www.w3.org/2000/svg"
 width="100.000000pt" height="100.000000pt" viewBox="0 0 100.000000 100.000000"
 preserveAspectRatio="xMidYMid meet">

<g transform="translate(0.000000,100.000000) scale(0.100000,-0.100000)"
fill="#000000" stroke="none">
<path d="M0 500 l0 -500 500 0 500 0 0 500 0 500 -500 0 -500 0 0 -500z m573
268 c42 -22 46 -38 47 -170 0 -69 -3 -134 -6 -143 -16 -42 -135 -61 -193 -30
-42 21 -55 90 -26 145 11 22 30 33 79 50 69 23 90 39 84 67 -8 45 -100 56
-113 13 -4 -14 -15 -20 -36 -20 -24 0 -29 4 -29 23 0 26 16 50 45 65 27 15
121 15 148 0z m-323 -468 c0 -47 2 -50 25 -50 16 0 25 -6 25 -15 0 -11 -11
-15 -40 -15 l-40 0 0 58 c0 32 3 62 7 65 16 17 23 3 23 -43z m150 -12 c19 -39
26 -64 19 -67 -6 -2 -16 2 -22 8 -14 14 -57 15 -57 1 0 -5 -7 -10 -15 -10 -8
0 -15 4 -15 10 0 11 52 120 58 120 1 0 16 -28 32 -62z m110 47 c0 -8 -7 -15
-15 -15 -11 0 -15 -12 -15 -50 0 -38 -4 -50 -15 -50 -11 0 -15 12 -15 50 0 38
-4 50 -15 50 -8 0 -15 7 -15 15 0 11 12 15 45 15 33 0 45 -4 45 -15z m87 -46
c29 -67 36 -64 48 16 7 49 7 49 23 29 10 -12 22 -30 28 -40 11 -17 13 -16 30
19 10 20 21 37 25 37 3 0 9 -23 13 -50 4 -28 9 -57 13 -66 4 -12 1 -15 -13
-12 -10 1 -21 14 -24 27 l-5 24 -12 -27 c-15 -32 -27 -33 -41 -3 l-11 22 -7
-22 c-5 -18 -14 -23 -40 -23 -19 0 -34 5 -34 10 0 14 -47 13 -52 -1 -2 -6 -11
-10 -19 -8 -14 3 -12 14 12 67 15 34 31 62 34 62 3 0 17 -27 32 -61z"/>
<path d="M512 570 c-57 -21 -76 -42 -68 -74 7 -29 41 -42 81 -32 28 7 38 34
33 87 l-3 35 -43 -16z"/>
</g>
</svg>
