<?xml version="1.0" standalone="no"?>
<!DOCTYPE svg PUBLIC "-//W3C//DTD SVG 20010904//EN"
 "http://www.w3.org/TR/2001/REC-SVG-20010904/DTD/svg10.dtd">
<svg version="1.0" xmlns="http://www.w3.org/2000/svg"
 width="100.000000pt" height="100.000000pt" viewBox="0 0 100.000000 100.000000"
 preserveAspectRatio="xMidYMid meet">

<g transform="translate(0.000000,100.000000) scale(0.100000,-0.100000)"
fill="#000000" stroke="none">
<path d="M0 500 l0 -500 500 0 500 0 0 500 0 500 -500 0 -500 0 0 -500z m210
307 c0 -7 -19 -35 -41 -62 -69 -82 -84 -125 -84 -235 0 -115 12 -152 76 -236
55 -73 58 -84 28 -84 -26 0 -77 54 -112 118 -55 101 -61 262 -15 364 40 88
148 186 148 135z m670 -44 c102 -116 123 -314 48 -455 -29 -55 -96 -128 -117
-128 -25 0 -19 25 18 66 76 87 107 189 91 302 -11 78 -37 136 -89 196 -33 38
-39 51 -30 62 15 18 36 6 79 -43z m-341 -47 c42 -52 55 -98 47 -167 -6 -65 2
-73 32 -32 l20 27 22 -44 c41 -80 22 -178 -45 -240 l-28 -25 17 33 c10 18 16
45 14 60 -3 23 -7 27 -30 24 -17 -2 -34 4 -49 19 -18 18 -21 29 -16 73 5 53
-1 106 -12 106 -11 -1 -92 -138 -108 -185 -9 -28 -13 -61 -10 -82 l6 -36 -24
23 c-14 13 -32 43 -41 66 -22 58 -12 115 30 180 54 81 96 171 103 219 5 41 7
43 24 31 10 -7 32 -29 48 -50z"/>
</g>
</svg>
